<svg width="147" height="143" viewBox="0 0 147 143" fill="none" xmlns="http://www.w3.org/2000/svg">
<path d="M6.98413 7.89743L13.9683 0H146.667V139.333H0V15.7949L6.98413 7.89743Z" fill="white"/>
<path d="M58.4084 85.5028L61.8831 91.3565L65.3583 97.2097L61.8814 103.062L58.4051 108.915L51.4536 108.914L44.502 108.913L41.0274 103.059L37.5521 97.2061L41.029 91.3537L44.5053 85.501L51.4568 85.5023L58.4084 85.5028Z" fill="black"/>
<path d="M53.1541 52.2253L56.6288 58.0789L60.1041 63.9322L56.6272 69.7845L53.1509 75.6372L46.1993 75.636L39.2478 75.6354L35.7731 69.7818L32.2978 63.9285L35.7747 58.0761L39.251 52.2234L46.2026 52.2247L53.1541 52.2253Z" fill="black"/>
<path d="M107.449 52.2253L110.924 58.0789L114.399 63.9322L110.922 69.7845L107.446 75.6372L100.494 75.636L93.5427 75.6354L90.068 69.7818L86.5928 63.9285L90.0697 58.0761L93.5459 52.2234L100.497 52.2247L107.449 52.2253Z" fill="black"/>
<path d="M130.216 67.3902L133.691 73.2438L137.166 79.0971L133.689 84.9494L130.213 90.8022L123.261 90.8009L116.31 90.8003L112.835 84.9467L109.36 79.0934L112.837 73.2411L116.313 67.3883L123.265 67.3896L130.216 67.3902Z" fill="black"/>
<path d="M30.3855 67.3902L33.8601 73.2438L37.3354 79.0971L33.8585 84.9494L30.3822 90.8022L23.4306 90.8009L16.4791 90.8003L13.0044 84.9467L9.52915 79.0934L13.0061 73.2411L16.4823 67.3883L23.4339 67.3896L30.3855 67.3902Z" fill="black"/>
<path d="M133.719 94.2593L137.194 100.113L140.669 105.966L137.192 111.819L133.716 117.671L126.764 117.67L119.813 117.669L116.338 111.816L112.863 105.963L116.34 100.11L119.816 94.2575L126.767 94.2587L133.719 94.2593Z" fill="black"/>
<path d="M30.3855 94.2593L33.8601 100.113L37.3354 105.966L33.8585 111.819L30.3822 117.671L23.4306 117.67L16.4791 117.669L13.0044 111.816L9.52915 105.963L13.0061 100.11L16.4823 94.2575L23.4339 94.2587L30.3855 94.2593Z" fill="black"/>
<path d="M103.945 85.5028L107.42 91.3565L110.895 97.2097L107.418 103.062L103.942 108.915L96.9905 108.914L90.0389 108.913L86.5642 103.059L83.089 97.2061L86.5659 91.3537L90.0422 85.501L96.9937 85.5023L103.945 85.5028Z" fill="black"/>
<path d="M81.1765 71.4912L84.6511 77.3449L88.1264 83.1982L84.6495 89.0505L81.1732 94.9032L74.2217 94.902L67.2701 94.9014L63.7954 89.0478L60.3202 83.1945L63.7971 77.3421L67.2734 71.4894L74.2249 71.4907L81.1765 71.4912Z" fill="black"/>
<path d="M81.1765 40.8528L84.6511 46.7064L88.1264 52.5597L84.6495 58.4121L81.1732 64.2648L74.2217 64.2635L67.2701 64.263L63.7954 58.4094L60.3202 52.5561L63.7971 46.7037L67.2734 40.851L74.2249 40.8522L81.1765 40.8528Z" fill="black"/>
<rect x="73.3334" y="91.6666" width="3.66667" height="47.6667" fill="black"/>
<rect x="73.3334" y="62.3336" width="3.66667" height="7.33333" fill="black"/>
<rect x="94.2543" y="96.0131" width="5.05471" height="50.1622" transform="rotate(27.0084 94.2543 96.0131)" fill="black"/>
<path d="M91.6344 74.5301L92.9405 76.9742L96.0573 77.0575L92.495 84.1908L89.998 84.1313L88.0548 81.2369L91.6344 74.5301Z" fill="black"/>
<path d="M55.7889 74.5954L54.4828 77.0395L51.366 77.1228L54.9284 84.2562L57.4254 84.1966L59.3685 81.3023L55.7889 74.5954Z" fill="black"/>
<rect width="5.05471" height="49.5743" transform="matrix(-0.89094 0.454121 0.454121 0.89094 53.1727 93.4855)" fill="black"/>
<path d="M37.2949 82.7443L33.5038 88.4308L37.9267 93.4855L41.7177 87.799L37.2949 82.7443Z" fill="black"/>
<path d="M110.339 82.0835L113.724 88.0204L108.96 92.7546L105.574 86.8177L110.339 82.0835Z" fill="black"/>
<rect width="5.05471" height="51.3179" transform="matrix(-0.560216 0.828347 0.828347 0.560216 33.8083 108.65)" fill="black"/>
<rect x="116.643" y="108.65" width="5.05471" height="53.5572" transform="rotate(55.9293 116.643 108.65)" fill="black"/>
<line y1="21.4999" x2="146.667" y2="21.4999" stroke="white"/>
</svg>
